<?xml version="1.0" encoding="UTF-8" standalone="no"?>
<!-- Created with Inkscape (http://www.inkscape.org/) -->

<svg
   xmlns:dc="http://purl.org/dc/elements/1.1/"
   xmlns:cc="http://creativecommons.org/ns#"
   xmlns:rdf="http://www.w3.org/1999/02/22-rdf-syntax-ns#"
   xmlns:svg="http://www.w3.org/2000/svg"
   xmlns="http://www.w3.org/2000/svg"
   xmlns:sodipodi="http://sodipodi.sourceforge.net/DTD/sodipodi-0.dtd"
   xmlns:inkscape="http://www.inkscape.org/namespaces/inkscape"
   width="34.540062mm"
   height="29.248396mm"
   viewBox="0 0 34.540062 29.248396"
   version="1.1"
   id="svg8"
   inkscape:version="0.92.4 (5da689c313, 2019-01-14)"
   sodipodi:docname="dream_deck_logo.svg">
  <defs
     id="defs2" />
  <sodipodi:namedview
     id="base"
     pagecolor="#ffffff"
     bordercolor="#666666"
     borderopacity="1.0"
     inkscape:pageopacity="0.0"
     inkscape:pageshadow="2"
     inkscape:zoom="1.979899"
     inkscape:cx="44.229759"
     inkscape:cy="-9.2582998"
     inkscape:document-units="mm"
     inkscape:current-layer="g4549"
     showgrid="false"
     inkscape:snap-text-baseline="true"
     inkscape:window-width="1920"
     inkscape:window-height="1017"
     inkscape:window-x="-8"
     inkscape:window-y="-8"
     inkscape:window-maximized="1" />
  <metadata
     id="metadata5">
    <rdf:RDF>
      <cc:Work
         rdf:about="">
        <dc:format>image/svg+xml</dc:format>
        <dc:type
           rdf:resource="http://purl.org/dc/dcmitype/StillImage" />
        <dc:title></dc:title>
      </cc:Work>
    </rdf:RDF>
  </metadata>
  <g
     inkscape:label="Layer 1"
     inkscape:groupmode="layer"
     id="layer1"
     transform="translate(-71.940063,-114.93002)">
    <g
       id="g4549">
      <g
         aria-label=" REAM
"
         transform="matrix(0.26458333,0,0,0.26458333,-21.770576,49.546443)"
         style="font-style:normal;font-weight:normal;font-size:40px;line-height:1.25;font-family:sans-serif;text-align:center;letter-spacing:0px;word-spacing:0px;text-anchor:middle;fill:none;fill-opacity:1;stroke:#000000;stroke-width:0.75590551;stroke-miterlimit:4;stroke-dasharray:none;stroke-opacity:1"
         id="flowRoot4518">
        <path
           d="m 413.13824,277.91016 h -3.14062 l -3.04688,-6.53125 q -0.34375,-0.75 -0.70312,-1.23438 -0.35938,-0.5 -0.78125,-0.78125 -0.40625,-0.29687 -0.90625,-0.42187 -0.48438,-0.125 -1.09375,-0.125 h -1.3125 v 9.09375 h -2.78125 v -20.42188 h 5.46875 q 1.78125,0 3.0625,0.39063 1.28125,0.39062 2.09375,1.09375 0.82812,0.70312 1.20312,1.70312 0.39063,0.98438 0.39063,2.1875 0,0.95313 -0.28125,1.8125 -0.28125,0.84375 -0.84375,1.54688 -0.54688,0.6875 -1.375,1.20312 -0.8125,0.5 -1.875,0.75 0.85937,0.29688 1.45312,1.04688 0.60938,0.73437 1.23438,1.96875 z m -4.45312,-14.8125 q 0,-1.64063 -1.03125,-2.45313 -1.01563,-0.8125 -2.875,-0.8125 h -2.625 v 6.75 h 2.25 q 0.98437,0 1.76562,-0.21875 0.79688,-0.23437 1.34375,-0.67187 0.5625,-0.45313 0.85938,-1.09375 0.3125,-0.65625 0.3125,-1.5 z"
           style="font-style:normal;font-variant:normal;font-weight:normal;font-stretch:normal;font-size:32px;line-height:0;font-family:Consolas;-inkscape-font-specification:Consolas;text-align:center;letter-spacing:2.55999994px;text-anchor:middle;fill:#000000;fill-opacity:1;stroke:#000000;stroke-width:0.75590551;stroke-miterlimit:4;stroke-dasharray:none;stroke-opacity:1"
           id="path846" />
        <path
           d="m 431.65137,277.91016 h -11.60938 v -20.42188 h 11.60938 v 2.34375 h -8.82813 v 6.32813 h 8.48438 v 2.34375 h -8.48438 v 7.03125 h 8.82813 z"
           style="font-style:normal;font-variant:normal;font-weight:normal;font-stretch:normal;font-size:32px;line-height:0;font-family:Consolas;-inkscape-font-specification:Consolas;text-align:center;letter-spacing:2.55999994px;text-anchor:middle;fill:#000000;fill-opacity:1;stroke:#000000;stroke-width:0.75590551;stroke-miterlimit:4;stroke-dasharray:none;stroke-opacity:1"
           id="path848" />
        <path
           d="m 454.52387,277.91016 h -3.03125 l -1.42188,-4.45313 h -8.5 l -1.4375,4.45313 h -2.89062 l 6.78125,-20.42188 h 3.8125 z m -5.25,-6.9375 -3.45313,-10.92188 -3.45312,10.92188 z"
           style="font-style:normal;font-variant:normal;font-weight:normal;font-stretch:normal;font-size:32px;line-height:0;font-family:Consolas;-inkscape-font-specification:Consolas;text-align:center;letter-spacing:2.55999994px;text-anchor:middle;fill:#000000;fill-opacity:1;stroke:#000000;stroke-width:0.75590551;stroke-miterlimit:4;stroke-dasharray:none;stroke-opacity:1"
           id="path850" />
        <path
           d="m 474.09949,277.91016 h -2.71875 l -0.40625,-12.73438 -0.17187,-4.89062 -0.95313,2.84375 -3.01562,8.125 h -1.92188 l -2.875,-7.8125 -0.95312,-3.15625 -0.0625,5.10937 -0.35938,12.51563 h -2.625 l 1,-20.42188 h 3.29688 l 2.75,7.6875 0.89062,2.59375 0.85938,-2.59375 2.89062,-7.6875 h 3.39063 z"
           style="font-style:normal;font-variant:normal;font-weight:normal;font-stretch:normal;font-size:32px;line-height:0;font-family:Consolas;-inkscape-font-specification:Consolas;text-align:center;letter-spacing:2.55999994px;text-anchor:middle;fill:#000000;fill-opacity:1;stroke:#000000;stroke-width:0.75590551;stroke-miterlimit:4;stroke-dasharray:none;stroke-opacity:1"
           id="path852" />
      </g>
      <flowRoot
         xml:space="preserve"
         id="flowRoot4577"
         style="font-style:normal;font-weight:normal;font-size:40px;line-height:1.25;font-family:sans-serif;letter-spacing:0px;word-spacing:0px;fill:#000000;fill-opacity:1;stroke:none"
         transform="matrix(0.26458333,0,0,0.26458333,22.67857,97.428558)"><flowRegion
           id="flowRegion4579"><rect
             id="rect4581"
             width="230.81985"
             height="110.6117"
             x="64.144684"
             y="23.696821" /></flowRegion><flowPara
           id="flowPara4583" /></flowRoot>      <path
         style="fill:none;stroke:#000000;stroke-width:1.26499999;stroke-linecap:butt;stroke-linejoin:miter;stroke-miterlimit:4;stroke-dasharray:none;stroke-opacity:1"
         d="M 76.577677,125.18441 H 106.11096"
         id="path4585"
         inkscape:connector-curvature="0"
         sodipodi:nodetypes="cc" />
      <g
         id="g4634"
         transform="translate(25.706103,-0.99164503)">
        <rect
           ry="1.6036124"
           y="116.55417"
           x="46.866467"
           height="9.6217012"
           width="9.6217012"
           id="rect4587"
           style="opacity:1;vector-effect:none;fill:none;fill-opacity:1;stroke:#000000;stroke-width:1.26499999;stroke-linecap:butt;stroke-linejoin:miter;stroke-miterlimit:4;stroke-dasharray:none;stroke-dashoffset:0;stroke-opacity:1" />
        <g
           aria-label="D"
           transform="matrix(0.26458333,0,0,0.26458333,-60.828215,50.538088)"
           style="font-style:normal;font-weight:normal;font-size:40px;line-height:1.25;font-family:sans-serif;text-align:center;letter-spacing:0px;word-spacing:0px;text-anchor:middle;fill:none;fill-opacity:1;stroke:#000000;stroke-width:0.75590551;stroke-miterlimit:4;stroke-dasharray:none;stroke-opacity:1"
           id="flowRoot4518-8">
          <path
             d="m 433.35449,267.47266 q 0,1.46875 -0.23437,2.8125 -0.21875,1.34375 -0.71875,2.5 -0.5,1.15625 -1.29688,2.10937 -0.79687,0.9375 -1.95312,1.60938 -1.15625,0.67187 -2.6875,1.04687 -1.53125,0.35938 -3.48438,0.35938 h -4.375 v -20.42188 h 5.26563 q 4.78125,0 7.125,2.46875 2.35937,2.45313 2.35937,7.51563 z m -2.92187,0.20312 q 0,-2.17187 -0.40625,-3.67187 -0.40625,-1.5 -1.23438,-2.42188 -0.82812,-0.92187 -2.07812,-1.32812 -1.25,-0.42188 -2.9375,-0.42188 h -2.39063 v 15.67188 h 2.07813 q 6.96875,0 6.96875,-7.82813 z"
             style="font-style:normal;font-variant:normal;font-weight:normal;font-stretch:normal;font-size:32px;line-height:0;font-family:Consolas;-inkscape-font-specification:Consolas;text-align:center;letter-spacing:2.55999994px;text-anchor:middle;fill:#000000;fill-opacity:1;stroke:#000000;stroke-width:0.75590551;stroke-miterlimit:4;stroke-dasharray:none;stroke-opacity:1"
             id="path855" />
        </g>
      </g>
      <g
         aria-label="ECK"
         transform="matrix(0,0.26458333,-0.26458333,0,148.2495,96.947545)"
         style="font-style:normal;font-weight:normal;font-size:40px;line-height:1.25;font-family:sans-serif;text-align:start;letter-spacing:0px;word-spacing:0px;text-anchor:start;fill:none;fill-opacity:1;stroke:#000000;stroke-width:0.75590551;stroke-miterlimit:4;stroke-dasharray:none;stroke-opacity:1"
         id="flowRoot4518-0">
        <path
           d="m 126.17773,277.91016 h -11.60937 v -20.42188 h 11.60937 v 2.34375 h -8.82812 v 6.32813 h 8.48437 v 2.34375 h -8.48437 v 7.03125 h 8.82812 z"
           style="font-style:normal;font-variant:normal;font-weight:normal;font-stretch:normal;font-size:32px;line-height:0;font-family:Consolas;-inkscape-font-specification:Consolas;text-align:start;letter-spacing:2.55999994px;text-anchor:start;fill:#000000;fill-opacity:1;stroke:#000000;stroke-width:0.75590551;stroke-miterlimit:4;stroke-dasharray:none;stroke-opacity:1"
           id="path839" />
        <path
           d="m 147.15961,277.14453 q -2.45313,1.01563 -5.14063,1.01563 -4.32812,0 -6.65625,-2.57813 -2.3125,-2.59375 -2.3125,-7.65625 0,-2.45312 0.64063,-4.4375 0.64062,-1.98437 1.82812,-3.35937 1.1875,-1.39063 2.875,-2.14063 1.6875,-0.75 3.78125,-0.75 1.42188,0 2.64063,0.25 1.21875,0.23438 2.34375,0.73438 v 2.73437 q -1.10938,-0.60937 -2.29688,-0.92187 -1.1875,-0.32813 -2.59375,-0.32813 -1.4375,0 -2.60937,0.54688 -1.15625,0.53125 -1.96875,1.5625 -0.8125,1.01562 -1.25,2.5 -0.4375,1.46875 -0.4375,3.35937 0,3.96875 1.60937,5.98438 1.60938,2.01562 4.71875,2.01562 1.3125,0 2.51563,-0.29687 1.20312,-0.3125 2.3125,-0.85938 z"
           style="font-style:normal;font-variant:normal;font-weight:normal;font-stretch:normal;font-size:32px;line-height:0;font-family:Consolas;-inkscape-font-specification:Consolas;text-align:start;letter-spacing:2.55999994px;text-anchor:start;fill:#000000;fill-opacity:1;stroke:#000000;stroke-width:0.75590551;stroke-miterlimit:4;stroke-dasharray:none;stroke-opacity:1"
           id="path841" />
        <path
           d="m 168.15711,277.91016 h -3.5 l -7.64063,-10.01563 v 10.01563 h -2.78125 v -20.42188 h 2.78125 v 9.48438 l 7.48438,-9.48438 h 3.29687 l -8.0625,9.70313 z"
           style="font-style:normal;font-variant:normal;font-weight:normal;font-stretch:normal;font-size:32px;line-height:0;font-family:Consolas;-inkscape-font-specification:Consolas;text-align:start;letter-spacing:2.55999994px;text-anchor:start;fill:#000000;fill-opacity:1;stroke:#000000;stroke-width:0.75590551;stroke-miterlimit:4;stroke-dasharray:none;stroke-opacity:1"
           id="path843" />
      </g>
      <rect
         ry="1.6036124"
         y="115.56252"
         x="72.572563"
         height="27.983397"
         width="33.275063"
         id="rect4587-3"
         style="opacity:1;vector-effect:none;fill:none;fill-opacity:1;stroke:#000000;stroke-width:1.26499999;stroke-linecap:butt;stroke-linejoin:miter;stroke-miterlimit:4;stroke-dasharray:none;stroke-dashoffset:0;stroke-opacity:1" />
      <path
         style="fill:none;stroke:#000000;stroke-width:1.26499999;stroke-linecap:butt;stroke-linejoin:miter;stroke-miterlimit:4;stroke-dasharray:none;stroke-opacity:1"
         d="m 82.191976,119.43384 v 24.05263"
         id="path4585-8"
         inkscape:connector-curvature="0"
         sodipodi:nodetypes="cc" />
      <g
         id="g4780"
         transform="translate(0,-2.6458334)">
        <circle
           r="1.2361215"
           cy="134.93547"
           cx="88.593918"
           id="path4756"
           style="opacity:1;vector-effect:none;fill:#000000;fill-opacity:1;stroke:none;stroke-width:1.278;stroke-linecap:butt;stroke-linejoin:miter;stroke-miterlimit:4;stroke-dasharray:none;stroke-dashoffset:0;stroke-opacity:1" />
        <circle
           style="opacity:1;vector-effect:none;fill:#000000;fill-opacity:1;stroke:none;stroke-width:1.278;stroke-linecap:butt;stroke-linejoin:miter;stroke-miterlimit:4;stroke-dasharray:none;stroke-dashoffset:0;stroke-opacity:1"
           id="circle4773"
           cx="99.6856"
           cy="134.93547"
           r="1.2361215" />
        <path
           sodipodi:nodetypes="cc"
           inkscape:connector-curvature="0"
           id="path4775"
           d="m 87.290979,138.70123 c 2.071338,1.33634 11.158498,1.44599 13.229841,0.009"
           style="fill:none;stroke:#000000;stroke-width:1.26499999;stroke-linecap:round;stroke-linejoin:miter;stroke-miterlimit:4;stroke-dasharray:none;stroke-opacity:1" />
      </g>
    </g>
  </g>
</svg>
